<?xml version="1.0" encoding="UTF-8"?>
<!DOCTYPE svg PUBLIC "-//W3C//DTD SVG 1.1//EN" "http://www.w3.org/Graphics/SVG/1.1/DTD/svg11.dtd">
<!-- Creator: CorelDRAW X7 -->
<svg xmlns="http://www.w3.org/2000/svg" xml:space="preserve" width="1598px" height="1594px" version="1.1" shape-rendering="geometricPrecision" text-rendering="geometricPrecision" image-rendering="optimizeQuality" fill-rule="evenodd" clip-rule="evenodd"
viewBox="0 0 1445 1442"
 xmlns:xlink="http://www.w3.org/1999/xlink">
 <g id="Layer_x0020_1">
  <metadata id="CorelCorpID_0Corel-Layer"/>
  <g id="_338460808">
   <polygon fill="#5FAA44" points="0,0 1445,0 1445,1442 0,1442 "/>
   <path fill="#FEFEFE" d="M0 272c51,42 109,107 158,156 54,53 102,101 155,154l233 231c30,30 33,47 18,71 -37,58 -77,15 -110,-18 -68,-68 -416,-425 -454,-445l0 281c32,23 68,64 98,94 34,34 63,63 97,97 62,61 125,132 189,188 32,28 85,48 125,69 42,22 79,43 120,64 55,29 358,223 262,25l-227 -429 -399 -396c-42,-43 -235,-240 -265,-260l0 118z"/>
   <polygon fill="#AFD4A1" points="1192,868 911,868 950,1038 1155,1039 "/>
   <path fill="#AFD4A1" d="M479 0l-49 0c34,125 148,312 211,407 90,136 168,221 274,337 -142,-182 -388,-546 -436,-744zm572 0l0 774 0 0 0 0 -3 0c-8,0 -18,0 -30,-1 -62,-272 -140,-458 -174,-773l207 0zm-375 0l-135 0c42,182 278,625 437,758 -123,-210 -236,-488 -302,-758z"/>
   <path fill="#AFD4A1" d="M1445 419c-86,129 -163,212 -266,325 75,-96 178,-242 266,-388l0 63zm-402 -419l0 774 0 0 0 0 3 0c8,0 17,0 30,-1 61,-272 140,-458 173,-773l-206 0zm375 0l27 0 0 270c-93,190 -227,403 -329,488 123,-210 236,-488 302,-758z"/>
  </g>
 </g>
</svg>
