<?xml version="1.0" encoding="UTF-8"?>
<!DOCTYPE svg PUBLIC "-//W3C//DTD SVG 1.1//EN" "http://www.w3.org/Graphics/SVG/1.1/DTD/svg11.dtd">
<!-- Creator: CorelDRAW X7 -->
<svg xmlns="http://www.w3.org/2000/svg" xml:space="preserve" width="2613px" height="2225px" version="1.1" shape-rendering="geometricPrecision" text-rendering="geometricPrecision" image-rendering="optimizeQuality" fill-rule="evenodd" clip-rule="evenodd"
viewBox="0 0 664 565"
 xmlns:xlink="http://www.w3.org/1999/xlink">
 <g id="Layer_x0020_1">
  <metadata id="CorelCorpID_0Corel-Layer"/>
  <g id="_103563304">
   <path fill="#27A8CB" d="M249 40l-2 15c0,6 -2,11 -2,17 -1,6 -2,11 -3,17 -2,10 -3,22 -5,32l-2 12 -2 14 -2 16 -3 16c-1,10 -3,21 -5,32 -1,9 -2,20 -5,30l-2 14 -2 15 -10 63c0,0 0,1 -1,1 1,5 0,10 -1,14 -1,15 -5,33 -7,47 -1,10 -5,39 -7,46l-2 15 -8 47 -4 28 -3 18c0,10 1,18 12,16 5,-1 13,-8 19,-10 2,-2 12,-8 16,-11 3,-2 14,-9 17,-10 3,-2 42,-27 46,-28 2,-3 17,-12 22,-15 8,-4 17,-11 24,-14 1,-2 12,-8 14,-10 5,-3 11,-7 16,-9 2,-3 42,-27 47,-29l5 -3c4,-4 13,-9 18,-12l36 -23c6,-4 13,-8 19,-11 5,-4 16,-10 23,-15 4,-3 18,-12 23,-13 1,-3 26,-18 29,-19 1,-1 20,-13 23,-15 5,-3 8,-5 13,-7 3,-2 9,-7 12,-8 6,-5 15,-10 23,-15 7,-4 16,-10 23,-14 6,-5 13,-5 13,-13 1,-9 -6,-11 -12,-15 -5,-3 -11,-7 -16,-10 -5,-4 -11,-7 -16,-11 -3,-1 -45,-27 -48,-31 -2,0 -26,-16 -29,-18 -5,-2 -43,-26 -46,-30 -4,-2 -34,-22 -41,-26l-5 -3c0,-1 0,-1 0,-1 -6,-1 -20,-12 -26,-16 -5,-2 -21,-12 -24,-16 -4,-1 -23,-14 -28,-17 -5,-2 -17,-11 -23,-15 -5,-3 -19,-11 -23,-15l-31 -19c-6,-5 -26,-18 -33,-18 -8,2 -8,8 -10,17 -1,6 -2,18 -4,23z"/>
   <path fill="#5DC0DB" d="M1 79c-1,9 -2,8 2,17l11 30c2,5 4,11 5,15 1,3 2,6 3,9 1,2 2,4 3,7l32 91c1,3 5,11 5,16l4 8c1,3 2,5 2,8 2,3 4,11 6,14 1,5 4,11 5,15 2,4 5,13 6,18 1,2 10,27 11,30 2,4 5,11 5,16l2 3c1,2 1,2 2,5 6,17 9,36 21,35 10,-1 8,-6 10,-13l3 -15 10 -65 2 -12c0,-6 1,-13 2,-16 1,-10 3,-20 5,-30 1,-10 3,-21 4,-30 0,-4 2,-17 3,-18l2 -14c1,-6 2,-12 2,-16 2,-11 4,-20 5,-31 2,-10 4,-20 5,-30l-2 -6c-5,-3 -7,-3 -14,-6 -3,0 -6,-1 -8,-2 -3,0 -5,-1 -7,-2 -4,0 -14,-2 -16,-4l-14 -3c-5,-1 -11,-3 -17,-5 -5,-1 -12,-2 -16,-4 -11,-2 -20,-5 -30,-8 -11,-3 -20,-6 -30,-8 -5,-1 -11,-3 -17,-3 -5,2 -3,2 -7,4z"/>
  </g>
 </g>
</svg>
